# xmcd
#
# Track frame offsets: 
#        150
#        12477
#        25194
#        45212
#        61866
#        79250
#        90841
#        105858
#        126861
#        138483
#        160831
#        176390
#
# Disc length: 2886 seconds
#
# Revision: 0
# Processed by: cddbd v1.5.2PL0 Copyright (c) Steve Scherf et al.
# Submitted via: ExactAudioCopy v1.1
#
DISCID=820b440c
DTITLE=John Mayall - Blues from Laurel Canyon
DYEAR=1968
DGENRE=Blues
TTITLE0=Vacation
TTITLE1=Walking on Sunset
TTITLE2=Laurel Canyon Home
TTITLE3=2401
TTITLE4=Ready to Ride
TTITLE5=Medicine Man
TTITLE6=Somebody's Acting Like a Child
TTITLE7=The Bear
TTITLE8=Miss James
TTITLE9=First Time Alone
TTITLE10=Long Gone Midnight
TTITLE11=Fly Tomorrow
EXTD=
EXTT0=
EXTT1=
EXTT2=
EXTT3=
EXTT4=
EXTT5=
EXTT6=
EXTT7=
EXTT8=
EXTT9=
EXTT10=
EXTT11=
PLAYORDER=
